<?xml version="1.0" standalone="no"?><!DOCTYPE svg PUBLIC "-//W3C//DTD SVG 1.1//EN" "http://www.w3.org/Graphics/SVG/1.1/DTD/svg11.dtd"><svg t="1647133878644" class="icon" viewBox="0 0 1024 1024" version="1.1" xmlns="http://www.w3.org/2000/svg" p-id="10289" xmlns:xlink="http://www.w3.org/1999/xlink" width="200" height="200"><defs><style type="text/css"></style></defs><path d="M521.07264 0c-249.979904 0-452.608 96.979968-452.608 216.63232l0 590.753792c0 119.614464 202.628096 216.613888 452.608 216.613888 249.940992 0 452.608-97.000448 452.608-216.613888L973.68064 216.63232C973.68064 96.979968 771.013632 0 521.07264 0zM521.07264 39.384064c243.52256 0 413.25056 93.402112 413.25056 177.248256 0 83.807232-169.728 177.219584-413.25056 177.219584-243.561472 0-413.25056-93.412352-413.25056-177.219584C107.82208 132.786176 277.512192 39.384064 521.07264 39.384064zM934.324224 768.002048l0 39.384064c0 83.807232-169.728 177.2288-413.25056 177.2288-243.561472 0-413.25056-93.421568-413.25056-177.2288l0-39.384064 0-69.230592c70.642688 75.577344 229.03296 128.308224 413.25056 128.308224 184.178688 0 342.606848-52.73088 413.25056-128.308224L934.324224 768.002048zM934.324224 610.464768c0 83.806208-169.728 177.2288-413.25056 177.2288-243.561472 0-413.25056-93.422592-413.25056-177.2288L107.823104 544.38912l0-42.539008c70.642688 75.57632 229.03296 128.306176 413.25056 128.306176 184.178688 0 342.606848-52.729856 413.25056-128.306176L934.324224 610.464768zM934.324224 413.544448c0 83.806208-169.728 177.2288-413.25056 177.2288-243.561472 0-413.25056-93.422592-413.25056-177.2288l0-108.60544c70.642688 75.56608 229.03296 128.29696 413.25056 128.29696 184.178688 0 342.606848-52.73088 413.25056-128.29696L934.324224 413.544448z" p-id="10290"></path></svg>