<?xml version="1.0" standalone="no"?><!DOCTYPE svg PUBLIC "-//W3C//DTD SVG 1.1//EN" "http://www.w3.org/Graphics/SVG/1.1/DTD/svg11.dtd"><svg t="1647091741274" class="icon" viewBox="0 0 1024 1024" version="1.1" xmlns="http://www.w3.org/2000/svg" p-id="2656" xmlns:xlink="http://www.w3.org/1999/xlink" width="200" height="200"><defs><style type="text/css"></style></defs><path d="M724.8 701.6H514.4c-8.8 0-16-7.2-16-16 0-28.8-24.8-52-54.4-52-30.4 0-54.4 23.2-54.4 52 0 8.8-7.2 16-16 16H264c-8.8 0-16-7.2-16-16V270.4c0-8.8 7.2-16 16-16h460.8c8.8 0 16 7.2 16 16v414.4c0 9.6-7.2 16.8-16 16.8z m-196-32h180V286.4H280v382.4h79.2c8-38.4 43.2-68 84.8-68s76.8 29.6 84.8 68.8z" p-id="2657"></path><path d="M1004 701.6h-80c-8.8 0-16-7.2-16-16 0-28.8-24.8-52-54.4-52s-54.4 23.2-54.4 52c0 8.8-7.2 16-16 16h-57.6c-8.8 0-16-7.2-16-16V388.8c0-8.8 7.2-16 16-16h164c4 0 8 1.6 11.2 4.8L1015.2 488c3.2 3.2 4.8 7.2 4.8 11.2v185.6c0 9.6-7.2 16.8-16 16.8z m-65.6-32h49.6V506.4l-105.6-101.6H740.8v264.8H768c8-38.4 43.2-68 84.8-68s77.6 28.8 85.6 68zM444 769.6c-48 0-86.4-37.6-86.4-84s39.2-84 86.4-84 86.4 37.6 86.4 84-38.4 84-86.4 84z m0-136c-30.4 0-54.4 23.2-54.4 52s24.8 52 54.4 52c30.4 0 54.4-23.2 54.4-52s-24.8-52-54.4-52z" p-id="2658"></path><path d="M444 713.6c-16.8 0-30.4-12.8-30.4-28s13.6-28 30.4-28c16.8 0 30.4 12.8 30.4 28s-13.6 28-30.4 28z m0-40c-8 0-14.4 5.6-14.4 12s6.4 12 14.4 12 14.4-5.6 14.4-12-6.4-12-14.4-12zM853.6 769.6c-48 0-86.4-37.6-86.4-84s39.2-84 86.4-84 86.4 37.6 86.4 84-39.2 84-86.4 84z m0-136c-30.4 0-54.4 23.2-54.4 52s24.8 52 54.4 52 54.4-23.2 54.4-52-24.8-52-54.4-52z" p-id="2659"></path><path d="M853.6 713.6c-16.8 0-30.4-12.8-30.4-28s13.6-28 30.4-28 30.4 12.8 30.4 28-13.6 28-30.4 28z m0-40c-8 0-14.4 5.6-14.4 12s6.4 12 14.4 12 14.4-5.6 14.4-12-6.4-12-14.4-12zM208.8 376H74.4c-8.8 0-16-7.2-16-16s7.2-16 16-16h134.4c8.8 0 16 7.2 16 16s-7.2 16-16 16zM154.4 451.2H20c-8.8 0-16-7.2-16-16s7.2-16 16-16h134.4c8.8 0 16 7.2 16 16s-7.2 16-16 16zM208.8 536.8H74.4c-8.8 0-16-7.2-16-16s7.2-16 16-16h134.4c8.8 0 16 7.2 16 16s-7.2 16-16 16zM154.4 612H20c-8.8 0-16-7.2-16-16s7.2-16 16-16h134.4c8.8 0 16 7.2 16 16s-7.2 16-16 16z" p-id="2660"></path></svg>