<?xml version="1.0" standalone="no"?><!DOCTYPE svg PUBLIC "-//W3C//DTD SVG 1.1//EN" "http://www.w3.org/Graphics/SVG/1.1/DTD/svg11.dtd"><svg t="1647097557910" class="icon" viewBox="0 0 1024 1024" version="1.1" xmlns="http://www.w3.org/2000/svg" p-id="3336" xmlns:xlink="http://www.w3.org/1999/xlink" width="200" height="200"><defs><style type="text/css"></style></defs><path d="M754.468571 146.285714a95.451429 95.451429 0 0 1 95.085715 95.451429v593.188571a95.451429 95.451429 0 0 1-95.085715 95.451429H277.942857A95.451429 95.451429 0 0 1 182.857143 834.925714V239.908571A95.451429 95.451429 0 0 1 277.942857 146.285714h73.142857V96.914286a23.771429 23.771429 0 1 1 47.542857 0V146.285714h238.08V96.914286a23.771429 23.771429 0 1 1 47.542858 0V146.285714z m47.542858 690.468572V239.908571a47.542857 47.542857 0 0 0-47.542858-47.542857h-73.142857v47.542857a23.771429 23.771429 0 0 1-47.542857 0v-47.542857h-236.617143v47.542857a23.771429 23.771429 0 1 1-47.542857 0v-47.542857h-73.142857a47.542857 47.542857 0 0 0-47.542857 47.542857v595.017143a48.274286 48.274286 0 0 0 47.542857 47.908572h475.428571a48.274286 48.274286 0 0 0 50.102858-47.908572zM706.56 548.571429a23.771429 23.771429 0 0 1 0 47.542857H325.851429a23.771429 23.771429 0 0 1 0-47.542857z m0-142.994286a24.137143 24.137143 0 0 1 23.771429 24.137143 23.771429 23.771429 0 0 1-23.771429 23.771428H325.851429a23.771429 23.771429 0 0 1-23.771429-23.771428 24.137143 24.137143 0 0 1 23.771429-24.137143z m0 285.988571a23.771429 23.771429 0 0 1 0 47.542857H325.851429a23.771429 23.771429 0 0 1 0-47.542857z" p-id="3337"></path></svg>