<?xml version="1.0" standalone="no"?><!DOCTYPE svg PUBLIC "-//W3C//DTD SVG 1.1//EN" "http://www.w3.org/Graphics/SVG/1.1/DTD/svg11.dtd"><svg t="1647098953793" class="icon" viewBox="0 0 1024 1024" version="1.1" xmlns="http://www.w3.org/2000/svg" p-id="8134" xmlns:xlink="http://www.w3.org/1999/xlink" width="200" height="200"><defs><style type="text/css"></style></defs><path d="M921.6 853.333333h-810.666667a42.666667 42.666667 0 0 0 0 85.333334h810.666667a42.666667 42.666667 0 0 0 0-85.333334zM281.6 384v341.333333h-42.666667V384h42.666667m0-85.333333h-42.666667a85.333333 85.333333 0 0 0-85.333333 85.333333v341.333333a85.333333 85.333333 0 0 0 85.333333 85.333334h42.666667a85.333333 85.333333 0 0 0 85.333333-85.333334V384a85.333333 85.333333 0 0 0-85.333333-85.333333zM793.6 512v213.333333h-42.666667v-213.333333h42.666667m0-85.333333h-42.666667a85.333333 85.333333 0 0 0-85.333333 85.333333v213.333333a85.333333 85.333333 0 0 0 85.333333 85.333334h42.666667a85.333333 85.333333 0 0 0 85.333333-85.333334v-213.333333a85.333333 85.333333 0 0 0-85.333333-85.333333zM537.6 213.333333v512h-42.666667V213.333333h42.666667m0-85.333333h-42.666667a85.333333 85.333333 0 0 0-85.333333 85.333333v512a85.333333 85.333333 0 0 0 85.333333 85.333334h42.666667a85.333333 85.333333 0 0 0 85.333333-85.333334V213.333333a85.333333 85.333333 0 0 0-85.333333-85.333333z" fill="#666666" p-id="8135"></path></svg>